<svg version="1.1" id="Layer_1" xmlns="http://www.w3.org/2000/svg" xmlns:xlink="http://www.w3.org/1999/xlink" x="0px" y="0px"
	 width="100%" viewBox="0 0 1200 1200" enable-background="new 0 0 1200 1200" xml:space="preserve">
<path fill="#037EF2" opacity="1.000000" stroke="none" 
	d="
M545.000000,1201.000000 
	C363.333344,1201.000000 182.166672,1201.000000 1.000000,1201.000000 
	C1.000000,801.000000 1.000000,401.000000 1.000000,1.000000 
	C401.000000,1.000000 801.000000,1.000000 1201.000000,1.000000 
	C1201.000000,401.000000 1201.000000,801.000000 1201.000000,1201.000000 
	C982.500000,1201.000000 764.000000,1201.000000 545.000000,1201.000000 
M389.725769,994.653259 
	C386.583588,986.002075 387.887115,977.984436 393.065765,970.462769 
	C395.047485,967.584473 396.776093,964.532104 398.754333,961.651245 
	C417.419189,934.470581 436.271851,907.417236 454.747589,880.108887 
	C469.102142,858.891846 484.843048,838.350159 494.289337,814.313843 
	C506.390137,783.523254 517.445496,752.320740 528.857239,721.261047 
	C533.414612,708.857239 537.720703,696.361023 542.424133,683.109619 
	C543.348938,684.498413 543.757263,684.981934 544.025940,685.533508 
	C556.477844,711.099548 568.678589,736.791199 581.411255,762.216492 
	C603.880371,807.084045 630.920349,849.458740 650.294189,896.127869 
	C664.271118,929.796570 683.866211,961.120422 700.660645,993.642456 
	C704.134216,1000.368958 706.488342,1007.703491 709.020874,1014.877014 
	C711.231384,1021.138428 712.600708,1027.710693 715.012695,1033.883423 
	C717.496521,1040.239746 721.300964,1042.776611 727.890015,1041.679199 
	C734.031860,1040.656250 740.268860,1038.806152 745.849670,1036.068115 
	C764.932983,1026.705322 784.948364,1020.177307 805.436768,1014.818054 
	C818.139709,1011.495239 830.802307,1007.975098 843.323364,1004.036011 
	C845.907593,1003.223083 849.630676,1000.088379 849.553528,998.154358 
	C849.438782,995.276550 847.007141,991.699463 844.503235,989.862061 
	C837.868774,984.993713 830.047119,983.636780 821.801697,983.772461 
	C805.001648,984.048828 788.192444,984.167908 771.393250,983.924805 
	C763.412781,983.809387 755.696899,982.204163 751.432373,974.097839 
	C744.626892,961.161438 736.506042,948.733154 731.265503,935.190674 
	C713.319336,888.815552 696.007812,842.184448 679.203247,795.382019 
	C668.751587,766.273193 659.711365,736.659180 649.930725,707.307495 
	C634.837219,662.012146 619.872009,616.661438 600.638184,572.892151 
	C598.308899,567.591492 596.899353,562.533020 597.135254,556.663208 
	C597.568359,545.888611 597.258728,535.084106 597.258728,523.566772 
	C599.773499,524.503296 601.415649,524.856079 602.787964,525.666016 
	C615.805664,533.348938 629.029480,540.720703 641.705505,548.935730 
	C662.563171,562.453186 681.559753,577.958618 693.293884,600.727234 
	C696.560486,607.065674 702.907654,609.974915 709.592834,609.621216 
	C716.585266,609.251282 723.579468,607.395447 730.383911,605.507996 
	C735.213562,604.168335 737.687744,600.054260 738.996948,595.270508 
	C742.657959,581.893616 736.599243,569.761230 722.595764,563.269409 
	C709.849792,557.360535 697.762024,550.649353 687.387939,540.885803 
	C661.441284,516.466248 635.362854,492.180115 608.967590,468.248322 
	C602.275635,462.180908 597.598145,456.031586 598.504089,446.617920 
	C598.723206,444.340759 598.170898,441.979736 597.897278,439.666260 
	C594.358521,409.746185 591.521179,379.718903 586.991699,349.949219 
	C584.223633,331.756165 578.662537,314.000580 574.710754,295.970734 
	C571.994141,283.576385 572.838806,271.095184 575.966003,258.880707 
	C578.081909,250.616318 581.159241,249.376648 589.590149,248.999664 
	C594.115906,248.797287 599.198975,247.136673 602.825867,244.485809 
	C606.831848,241.557816 610.197266,237.135757 612.561462,232.684479 
	C623.659302,211.789551 627.622498,189.305283 624.579834,165.957535 
	C621.374268,141.360077 606.913391,125.607208 584.476135,120.494881 
	C558.788269,114.641914 531.286987,128.500809 522.953308,151.997589 
	C518.796631,163.717438 517.827637,176.022202 518.621765,188.457428 
	C519.542175,202.869354 521.460632,217.337814 520.872070,231.696732 
	C520.052002,251.701508 513.394836,268.764404 496.130890,282.064117 
	C473.713501,299.333893 458.080627,322.535583 449.679138,349.897888 
	C440.501221,379.788818 430.774475,409.574890 423.253632,439.894470 
	C414.407440,475.557068 407.686066,511.746368 400.020996,547.702515 
	C396.035645,566.397583 392.514404,585.113586 382.631958,602.083252 
	C375.811829,613.794495 373.535004,627.055359 375.070526,640.702026 
	C375.957611,648.585876 379.094330,655.189697 386.866608,658.501892 
	C398.918152,663.637756 415.286530,656.915283 419.544739,644.539612 
	C421.793121,638.005127 422.873993,631.002625 423.883362,624.123657 
	C425.401306,613.778931 424.893677,602.902649 427.878571,593.049438 
	C438.821411,556.926880 450.830872,521.126953 462.495331,485.224030 
	C464.118652,480.227539 466.058624,475.333923 468.276459,469.223145 
	C468.590576,470.984161 468.743439,471.401215 468.726898,471.811432 
	C467.727570,496.595490 466.796021,521.382812 465.629181,546.158997 
	C465.412292,550.764404 464.609802,555.419800 463.453491,559.890686 
	C456.611511,586.346191 450.122437,612.902466 448.203094,640.237732 
	C444.888397,687.446350 439.828796,734.408569 431.187775,780.972778 
	C429.096924,792.239807 425.805481,802.176208 418.065979,811.377502 
	C403.095398,829.175598 393.547363,850.506348 383.080536,871.144897 
	C367.735046,901.403137 353.287659,932.036072 329.204346,957.053955 
	C316.408905,970.346069 317.550568,984.343750 330.637299,997.334167 
	C344.685944,1011.279480 359.542328,1024.431763 374.392670,1037.537476 
	C379.457550,1042.007324 385.283173,1045.840210 391.277466,1048.977783 
	C399.805145,1053.441406 409.065369,1053.174316 417.985168,1050.028687 
	C425.038574,1047.541382 425.727905,1042.356445 420.026733,1037.878052 
	C418.067078,1036.338867 416.083710,1034.702148 413.854767,1033.656616 
	C406.327759,1030.125610 401.531860,1024.063843 398.288391,1016.777100 
	C395.186188,1009.807617 392.672516,1002.576111 389.725769,994.653259 
z"/>
<path fill="#FEFEFF" opacity="1.000000" stroke="none" 
	d="
M389.812927,995.056519 
	C392.672516,1002.576111 395.186188,1009.807617 398.288391,1016.777100 
	C401.531860,1024.063843 406.327759,1030.125610 413.854767,1033.656616 
	C416.083710,1034.702148 418.067078,1036.338867 420.026733,1037.878052 
	C425.727905,1042.356445 425.038574,1047.541382 417.985168,1050.028687 
	C409.065369,1053.174316 399.805145,1053.441406 391.277466,1048.977783 
	C385.283173,1045.840210 379.457550,1042.007324 374.392670,1037.537476 
	C359.542328,1024.431763 344.685944,1011.279480 330.637299,997.334167 
	C317.550568,984.343750 316.408905,970.346069 329.204346,957.053955 
	C353.287659,932.036072 367.735046,901.403137 383.080536,871.144897 
	C393.547363,850.506348 403.095398,829.175598 418.065979,811.377502 
	C425.805481,802.176208 429.096924,792.239807 431.187775,780.972778 
	C439.828796,734.408569 444.888397,687.446350 448.203094,640.237732 
	C450.122437,612.902466 456.611511,586.346191 463.453491,559.890686 
	C464.609802,555.419800 465.412292,550.764404 465.629181,546.158997 
	C466.796021,521.382812 467.727570,496.595490 468.726898,471.811432 
	C468.743439,471.401215 468.590576,470.984161 468.276459,469.223145 
	C466.058624,475.333923 464.118652,480.227539 462.495331,485.224030 
	C450.830872,521.126953 438.821411,556.926880 427.878571,593.049438 
	C424.893677,602.902649 425.401306,613.778931 423.883362,624.123657 
	C422.873993,631.002625 421.793121,638.005127 419.544739,644.539612 
	C415.286530,656.915283 398.918152,663.637756 386.866608,658.501892 
	C379.094330,655.189697 375.957611,648.585876 375.070526,640.702026 
	C373.535004,627.055359 375.811829,613.794495 382.631958,602.083252 
	C392.514404,585.113586 396.035645,566.397583 400.020996,547.702515 
	C407.686066,511.746368 414.407440,475.557068 423.253632,439.894470 
	C430.774475,409.574890 440.501221,379.788818 449.679138,349.897888 
	C458.080627,322.535583 473.713501,299.333893 496.130890,282.064117 
	C513.394836,268.764404 520.052002,251.701508 520.872070,231.696732 
	C521.460632,217.337814 519.542175,202.869354 518.621765,188.457428 
	C517.827637,176.022202 518.796631,163.717438 522.953308,151.997589 
	C531.286987,128.500809 558.788269,114.641914 584.476135,120.494881 
	C606.913391,125.607208 621.374268,141.360077 624.579834,165.957535 
	C627.622498,189.305283 623.659302,211.789551 612.561462,232.684479 
	C610.197266,237.135757 606.831848,241.557816 602.825867,244.485809 
	C599.198975,247.136673 594.115906,248.797287 589.590149,248.999664 
	C581.159241,249.376648 578.081909,250.616318 575.966003,258.880707 
	C572.838806,271.095184 571.994141,283.576385 574.710754,295.970734 
	C578.662537,314.000580 584.223633,331.756165 586.991699,349.949219 
	C591.521179,379.718903 594.358521,409.746185 597.897278,439.666260 
	C598.170898,441.979736 598.723206,444.340759 598.504089,446.617920 
	C597.598145,456.031586 602.275635,462.180908 608.967590,468.248322 
	C635.362854,492.180115 661.441284,516.466248 687.387939,540.885803 
	C697.762024,550.649353 709.849792,557.360535 722.595764,563.269409 
	C736.599243,569.761230 742.657959,581.893616 738.996948,595.270508 
	C737.687744,600.054260 735.213562,604.168335 730.383911,605.507996 
	C723.579468,607.395447 716.585266,609.251282 709.592834,609.621216 
	C702.907654,609.974915 696.560486,607.065674 693.293884,600.727234 
	C681.559753,577.958618 662.563171,562.453186 641.705505,548.935730 
	C629.029480,540.720703 615.805664,533.348938 602.787964,525.666016 
	C601.415649,524.856079 599.773499,524.503296 597.258728,523.566772 
	C597.258728,535.084106 597.568359,545.888611 597.135254,556.663208 
	C596.899353,562.533020 598.308899,567.591492 600.638184,572.892151 
	C619.872009,616.661438 634.837219,662.012146 649.930725,707.307495 
	C659.711365,736.659180 668.751587,766.273193 679.203247,795.382019 
	C696.007812,842.184448 713.319336,888.815552 731.265503,935.190674 
	C736.506042,948.733154 744.626892,961.161438 751.432373,974.097839 
	C755.696899,982.204163 763.412781,983.809387 771.393250,983.924805 
	C788.192444,984.167908 805.001648,984.048828 821.801697,983.772461 
	C830.047119,983.636780 837.868774,984.993713 844.503235,989.862061 
	C847.007141,991.699463 849.438782,995.276550 849.553528,998.154358 
	C849.630676,1000.088379 845.907593,1003.223083 843.323364,1004.036011 
	C830.802307,1007.975098 818.139709,1011.495239 805.436768,1014.818054 
	C784.948364,1020.177307 764.932983,1026.705322 745.849670,1036.068115 
	C740.268860,1038.806152 734.031860,1040.656250 727.890015,1041.679199 
	C721.300964,1042.776611 717.496521,1040.239746 715.012695,1033.883423 
	C712.600708,1027.710693 711.231384,1021.138428 709.020874,1014.877014 
	C706.488342,1007.703491 704.134216,1000.368958 700.660645,993.642456 
	C683.866211,961.120422 664.271118,929.796570 650.294189,896.127869 
	C630.920349,849.458740 603.880371,807.084045 581.411255,762.216492 
	C568.678589,736.791199 556.477844,711.099548 544.025940,685.533508 
	C543.757263,684.981934 543.348938,684.498413 542.424133,683.109619 
	C537.720703,696.361023 533.414612,708.857239 528.857239,721.261047 
	C517.445496,752.320740 506.390137,783.523254 494.289337,814.313843 
	C484.843048,838.350159 469.102142,858.891846 454.747589,880.108887 
	C436.271851,907.417236 417.419189,934.470581 398.754333,961.651245 
	C396.776093,964.532104 395.047485,967.584473 393.065765,970.462769 
	C387.887115,977.984436 386.583588,986.002075 389.812927,995.056519 
z"/>
</svg>